<?xml version="1.0" encoding="utf-8"?>
<!-- Generator: Adobe Illustrator 18.0.0, SVG Export Plug-In . SVG Version: 6.00 Build 0)  -->
<!DOCTYPE svg PUBLIC "-//W3C//DTD SVG 1.1//EN" "http://www.w3.org/Graphics/SVG/1.1/DTD/svg11.dtd">
<svg version="1.1" id="Layer_1" xmlns="http://www.w3.org/2000/svg" xmlns:xlink="http://www.w3.org/1999/xlink" x="0px" y="0px"
	 viewBox="18.1 368.6 575.8 54.8" enable-background="new 18.1 368.6 575.8 54.8" xml:space="preserve">
<g id="Guides">
</g>
<g id="Layer_2">
	<g id="Sign_up_1_">
	</g>
	<g id="Sign_up">
	</g>
	<g id="Twin_Lights">
	</g>
	<g id="Hero">
	</g>
	<g id="About">
		<g id="About_1_">
		</g>
		<g id="Sign_up_2_">
		</g>
	</g>
	<g id="header">
		<g>
			<g>
				<path fill="#666869" d="M40.3,382.4l-1.2,6.6h4.5c4,0,5.2-1.4,5.6-3.3c0.4-2-0.7-3.3-4.5-3.3H40.3z M36.8,402.4l-1.2,7.1h4.5
					c4.3,0,6.1-1.3,6.4-3.6c0.4-2.3-0.8-3.5-5.3-3.5H36.8z M27.5,369.3h19.4c11.8,0,18.9,7.4,17.1,17.2c-0.8,4.4-2.9,7.5-6,9.5
					c3.3,2.6,4.8,6.5,3.8,12.6c-1.6,9.2-9.4,14-21.7,14h-22L27.5,369.3z"/>
			</g>
			<polygon fill="#666869" points="72.2,369.3 62.8,422.7 78.1,422.7 87.4,369.3 			"/>
			<polygon fill="#666869" points="117.8,369.3 104.9,385 107.7,369.3 92.5,369.3 83.2,422.7 98.4,422.7 100.8,408.4 105.5,402.8 
				112,422.7 128.2,422.7 117.6,391.8 136.6,369.3 			"/>
			<polygon fill="#666869" points="141.3,369.3 132,422.7 163.3,422.7 165.7,408.8 149.6,408.8 150.6,403.2 166.7,403.2 
				169.2,389.1 153.1,389.1 154.1,383.3 170.2,383.3 172.6,369.3 			"/>
			<polygon fill="#666869" points="244.8,369.3 240.3,394.4 230.2,369.3 214.5,369.3 205,422.7 220.2,422.7 225,395.6 236,422.7 
				250.6,422.7 260,369.3 			"/>
			<polygon fill="#666869" points="265.1,369.3 255.7,422.7 287,422.7 289.4,408.8 273.3,408.8 274.3,403.2 290.5,403.2 
				292.9,389.1 276.9,389.1 277.9,383.3 293.9,383.3 296.4,369.3 			"/>
			<polygon fill="#666869" points="357.6,369.3 346,396.6 343.6,369.3 328.5,369.3 316.5,396.5 314.4,369.3 298.8,369.3 
				304.1,422.7 319.8,422.7 332,394.9 334.3,422.7 350,422.7 373.9,369.3 			"/>
			<polygon fill="#666869" points="435.7,369.3 425.6,383.3 420.5,369.3 404.9,369.3 415.9,396.7 411.4,422.7 426.6,422.7 
				431,397.6 452.9,369.3 			"/>
			<g>
				<path fill="#666869" d="M481.5,397.2c1.2-7.1-3.2-13.5-10.8-13.5c-6.7,0-11.6,4.9-12.8,11.2c-1.2,7.1,3.2,13.5,10.8,13.5
					C475.5,408.3,480.5,403.5,481.5,397.2 M442.4,393.4c2.4-14.1,15-24.8,29.7-24.8c16.7,0,27.7,14,25,30
					c-2.4,14.1-14.2,24.8-29.6,24.8C450.6,423.4,439.7,409.4,442.4,393.4"/>
				<path fill="#666869" d="M518.6,382.8l-1.8,9.9h2.3c5.1,0,7.4-1.9,8-5.2c0.5-2.9-1-4.8-6.4-4.8H518.6z M535.4,422.7
					c-12,0-18.6-6.5-21.1-15.9l-2.8,15.9h-15.2l9.4-53.3h17.5c13.8,0,21.4,8.8,19.4,20.4c-1,5.7-4.4,11.6-12.7,14.2
					c1.5,3.6,4.7,4.8,8.4,4.8h0.9l-2.5,14H535.4z"/>
			</g>
			<polygon fill="#666869" points="575.1,369.3 562.2,385 565,369.3 549.8,369.3 540.4,422.7 555.7,422.7 558.1,408.4 562.7,402.8 
				569.3,422.7 585.5,422.7 574.9,391.8 593.9,369.3 			"/>
		</g>
	</g>
</g>
<g id="Layer_7">
</g>
</svg>
