<?xml version="1.0" encoding="utf-8"?>
<!-- Generator: Adobe Illustrator 18.0.0, SVG Export Plug-In . SVG Version: 6.00 Build 0)  -->
<!DOCTYPE svg PUBLIC "-//W3C//DTD SVG 1.1//EN" "http://www.w3.org/Graphics/SVG/1.1/DTD/svg11.dtd">
<svg version="1.1" id="Layer_1" xmlns="http://www.w3.org/2000/svg" xmlns:xlink="http://www.w3.org/1999/xlink" x="0px" y="0px"
	 viewBox="34.8 164 542.4 463.9" enable-background="new 34.8 164 542.4 463.9" xml:space="preserve">
<g id="Guides">
</g>
<g id="Layer_2">
	<g id="Sign_up_1_">
	</g>
	<g id="Sign_up">
	</g>
	<g id="Twin_Lights">
	</g>
	<g id="Volunteer_x2F_Classes">
	</g>
	<g id="Hero">
	</g>
	<g id="About">
		<g id="About_1_">
		</g>
		<g id="Sign_up_2_">
		</g>
	</g>
	<g id="header">
	</g>
</g>
<g id="Layer_7">
	<g>
		<g>
			<path fill="#FFFFFF" d="M55.7,589.3l-1.1,6.2h4.2c3.8,0,4.9-1.3,5.2-3.1c0.3-1.9-0.6-3.1-4.3-3.1H55.7z M52.4,608.2l-1.2,6.7h4.3
				c4.1,0,5.7-1.2,6.1-3.4c0.4-2.1-0.8-3.3-5-3.3H52.4z M43.6,577h18.3c11.2,0,17.8,7,16.1,16.2c-0.8,4.1-2.8,7-5.6,9
				c3.1,2.4,4.5,6.1,3.6,11.8c-1.5,8.7-8.9,13.2-20.4,13.2H34.8L43.6,577z"/>
		</g>
		<polygon fill="#FFFFFF" points="85.8,577 77,627.3 91.3,627.3 100.1,577 		"/>
		<polygon fill="#FFFFFF" points="128.7,577 116.6,591.8 119.2,577 104.9,577 96.1,627.3 110.4,627.3 112.7,613.9 117.1,608.6 
			123.2,627.3 138.5,627.3 128.5,598.2 146.4,577 		"/>
		<polygon fill="#FFFFFF" points="150.9,577 142.1,627.3 171.6,627.3 173.8,614.2 158.7,614.2 159.6,608.9 174.8,608.9 177.1,595.7 
			162,595.7 163,590.2 178,590.2 180.4,577 		"/>
		<polygon fill="#FFFFFF" points="248.3,577 244.1,600.6 234.5,577 219.8,577 210.9,627.3 225.2,627.3 229.7,601.8 240.1,627.3 
			253.8,627.3 262.7,577 		"/>
		<polygon fill="#FFFFFF" points="267.5,577 258.6,627.3 288.1,627.3 290.4,614.2 275.2,614.2 276.1,608.9 291.4,608.9 293.7,595.7 
			278.5,595.7 279.5,590.2 294.6,590.2 296.9,577 		"/>
		<polygon fill="#FFFFFF" points="354.6,577 343.7,602.7 341.4,577 327.2,577 315.9,602.6 313.9,577 299.2,577 304.2,627.3 
			319,627.3 330.5,601.1 332.7,627.3 347.5,627.3 370,577 		"/>
		<polygon fill="#FFFFFF" points="428.2,577 418.7,590.2 413.9,577 399.2,577 409.5,602.8 405.2,627.3 419.6,627.3 423.7,603.7 
			444.4,577 		"/>
		<g>
			<path fill="#FFFFFF" d="M471.4,603.3c1.2-6.7-3-12.7-10.2-12.7c-6.3,0-10.9,4.6-12.1,10.5c-1.2,6.7,3,12.7,10.2,12.7
				C465.6,613.8,470.3,609.2,471.4,603.3 M434.5,599.7c2.3-13.3,14.1-23.4,28-23.4c15.7,0,26.1,13.2,23.5,28.2
				c-2.3,13.3-13.4,23.4-27.9,23.4C442.2,628,432,614.7,434.5,599.7"/>
			<path fill="#FFFFFF" d="M506.2,589.8l-1.7,9.4h2.1c4.8,0,7-1.8,7.6-4.9c0.5-2.7-1-4.5-6.1-4.5H506.2z M522.1,627.3
				c-11.3,0-17.5-6.1-19.8-14.9l-2.6,14.9h-14.3l8.8-50.3h16.5c13,0,20.1,8.2,18.2,19.2c-1,5.4-4.1,10.9-12,13.4
				c1.4,3.4,4.4,4.5,7.9,4.5h0.8l-2.4,13.2H522.1L522.1,627.3z"/>
		</g>
		<polygon fill="#FFFFFF" points="559.5,577 547.4,591.8 550,577 535.7,577 526.8,627.3 541.2,627.3 543.5,613.9 547.9,608.6 
			554,627.3 569.3,627.3 559.3,598.2 577.2,577 		"/>
		<path fill="#FFFFFF" d="M160.8,247.3l-32.3,0c-12.4,0-33.3-5.3-33.3-40.8c0-34.6,24.1-42.4,33.3-42.5l79.2,0.1
			c4.5,0,7.3,1.8,9.3,6.1l19.1,45.7c0.6,1.5,0.5,2.9-0.2,3.9c-0.8,1.1-2.2,1.8-3.9,1.8l-22.3,0.1c-5.5-0.1-6.6-2-7.8-4.3l-8.5-19.8
			c-1.3-2.8-1.9-4.4-5.8-4.5l-54.3,0h0c-0.4,0-2.7,0.1-4.7,2.1c-2.2,2.3-3.3,6.1-3.3,11.3c0.2,13.2,7.8,13.4,8.1,13.4l38.2,0
			c2.3,0,3.3,0.9,3.8,1.7c0.5,0.8,1,2.2,0,4.5l-7.6,17.2C166.6,245.9,164.1,247.3,160.8,247.3"/>
		<path fill="#FFFFFF" d="M152.9,530.9L152.9,530.9c-28,0-54.6-10.8-74.9-30.3c-20.4-19.6-32.3-46-33.4-74.3
			c-1.2-29.1,8.9-56.9,28.6-78.3c19.6-21.5,46.3-33.9,75.2-35.1c1.7-0.1,8.6-0.5,12.8,0.1c1.4,0.2,4.2,2,3,4.7l-9.5,22.6
			c-1.4,3.4-2.8,3.8-5,3.8c-20.3,0.7-39.1,9.4-53,24.5C82.4,384,75,404,75.9,425c1.8,42.9,37.4,76.2,80.2,74.5
			c20.5-0.9,39.5-9.7,53.5-25c13.9-15.3,21.2-35.1,20.3-55.8c-0.7-17.1-7.1-33.4-18.5-47.3c0,0-3.3-4.1-1.8-7.3l9.6-22.8
			c0.5-1.2,1.9-1.9,3.5-1.7c1.8,0.2,3.3,1.6,3.9,2.2c20.8,18.8,33.5,46.4,34.7,75.7c2.5,60.1-44.1,111-103.8,113.5
			C155.9,530.9,154.3,530.9,152.9,530.9"/>
		<path fill="#FFFFFF" d="M154.9,445.4l-22.6,0c-1.6,0-3.1-0.7-3.9-2c-0.9-1.4-0.9-3.1-0.1-4.8l84-200c1.8-4.3,5-4.3,6.7-4.3h0.9
			l17.9,0.1h0.4c2.9,0,5.6,0.3,7.3,4.2l57.7,137.6c0.3,0.6,0.9,1,1.4,1c0.5,0,1-0.3,1.2-1c0.6-1.4,57.9-137.7,58.1-138
			c1.6-3.4,3.9-3.9,6.1-4h45.3c6.2,0.1,7.5,4,7.5,4.1L468,345.5c0.3,0.4,0.7,0.7,1.2,0.7c0.5,0,0.9-0.3,1.1-0.8l44.9-107
			c1.7-3.7,4.6-4,7.3-4l21.9,0c1.9,0,3.3,0.7,4.1,1.8c0.5,0.8,1,2.3,0,4.7l-83.8,200c-1.4,3.1-3.6,4.4-7.3,4.4l-22.1,0
			c-1.6,0-2.9-0.7-3.8-1.8c-0.9-1.2-1-2.7-0.5-4.2l21.1-50.4l-57.2-136.2c-0.2-0.5-0.6-0.7-1.1-0.7c-0.5,0-0.9,0.3-1.2,0.8
			l-72.3,172.8c-1.6,3.1-3.9,3.7-7,3.7H313h-17.3c-2.8,0-5.2-0.3-6.9-3.7c-0.1-0.1-40.7-97.4-58.8-140.3c-0.4-0.9-2.1-1.2-2.5-0.3
			l-65.4,155.9C160.7,443.9,158.7,445.4,154.9,445.4"/>
		<path fill="#FFFFFF" d="M409.2,221.6L409.2,221.6L409.2,221.6l-80.9-0.2c-4-0.1-10.4-3.2-10.4-10.8c0-7.8,7.2-11.3,11.4-12.1
			c16.1-3,67.8-8.8,68-8.8c0.3,0,0.8-0.1,1.2-0.1c2.5,0,4.2,1.1,5.3,3.6c0.1,0.3,9.5,22.7,9.7,23c0.5,1.1,0.4,2.4-0.2,3.4
			C412.5,220.9,410.9,221.6,409.2,221.6"/>
		<polygon fill="#FFFFFF" points="440.4,345.4 440.4,345.4 440,344.5 		"/>
		<polygon fill="#FFFFFF" points="439.6,345.9 439.5,345.8 439.1,344.9 440.8,344.1 441.2,345 		"/>
		<g>
			<path fill="#FFFFFF" d="M456.6,530.9L456.6,530.9L456.6,530.9c-29.1,0-56.5-11.4-77-32c-20.6-20.6-31.9-48-31.9-77
				c0-39.6,21.5-76,56-95.2c0.4-0.3,1.9-0.7,3.4-0.7c2.2,0,3.9,1,4.7,2.9l8.4,20.1c0.7,2.4,0,4.3-1.9,5.4
				C394,368.3,379,394.2,379,421.9c0,20.7,8.1,40.2,22.7,54.9c14.7,14.7,34.2,22.8,54.9,22.8c42.8,0,77.7-34.8,77.7-77.6
				c0-19.7-7.4-38.5-20.9-53c-2.3-2.3-2-4.5-1.4-6l9-21.6c0.7-1.6,1.9-2.5,3.6-2.5c1.7,0,3.5,1,4.1,1.6
				c23.4,21.1,36.9,50.8,36.8,81.6C565.6,482.1,516.7,530.9,456.6,530.9"/>
		</g>
	</g>
</g>
</svg>
