<?xml version="1.0" encoding="utf-8"?>
<!-- Generator: Adobe Illustrator 18.0.0, SVG Export Plug-In . SVG Version: 6.00 Build 0)  -->
<!DOCTYPE svg PUBLIC "-//W3C//DTD SVG 1.1//EN" "http://www.w3.org/Graphics/SVG/1.1/DTD/svg11.dtd">
<svg version="1.1" id="Layer_1" xmlns="http://www.w3.org/2000/svg" xmlns:xlink="http://www.w3.org/1999/xlink" x="0px" y="0px"
	 viewBox="52.8 217.6 506.3 356.9" enable-background="new 52.8 217.6 506.3 356.9" xml:space="preserve">
<g id="Guides">
</g>
<g id="Layer_2">
	<g id="Sign_up_1_">
	</g>
	<g id="Sign_up">
	</g>
	<g id="Twin_Lights">
	</g>
	<g id="Hero">
	</g>
	<g id="About">
		<g id="About_1_">
		</g>
		<g id="Sign_up_2_">
		</g>
	</g>
	<g id="header">
		<g>
			<g>
				<path fill="#4AB678" d="M133.7,217.6c-8.7,0.1-31.3,7.4-31.3,40.2c0,33.6,19.6,38.6,31.3,38.6l31.5,0c2.8,0,4.8-1.1,5.8-3.3
					l7.4-16.8c0.7-1.8,0.4-2.8,0.1-3.2c-0.5-0.7-1.4-1.1-2.7-1.1l-37.2,0c-0.4,0-9-0.2-9.1-14.2c-0.1-5.4,1.1-9.5,3.5-11.9
					c2.3-2.3,4.9-2.4,5.4-2.4l53,0c4.4,0.1,5.5,2.3,6.6,4.8l0.1,0.3l8.3,19.3c1,1.9,1.8,3.3,6.5,3.4l21.8,0c1.2,0,2.2-0.5,2.8-1.2
					c0.5-0.7,0.5-1.7,0.1-2.7l-18.6-44.6c-1.7-3.7-4-5.2-7.9-5.2L133.7,217.6z"/>
			</g>
			<g>
				<path fill="#4AB678" d="M159.7,362.6c-2.3,0-4.4,0.1-5.7,0.2l-0.9,0c-27.9,1.2-53.7,13.2-72.6,33.9
					c-18.9,20.7-28.7,47.5-27.6,75.6c1.1,27.3,12.6,52.7,32.3,71.7c19.5,18.9,45.2,29.2,72.3,29.3c1.4,0,2.9,0,4.3-0.1
					c27.9-1.2,53.7-13.2,72.6-33.9c18.9-20.7,28.7-47.6,27.6-75.6c-1.2-28.2-13.3-54.8-33.4-73c-0.6-0.6-1.9-1.7-3.1-1.8h-0.3
					c-0.9,0-1.6,0.4-1.8,1l-9.4,22.3c-0.9,2,0.8,4.9,1.6,5.8c11.3,13.8,17.6,30,18.3,46.9c0.9,20.5-6.3,40.2-20.1,55.4
					c-13.8,15.2-32.7,24-53.1,24.8c-42.5,1.9-77.8-31.3-79.6-73.8c-0.8-20.8,6.5-40.7,20.6-55.9c13.9-15,32.5-23.6,52.6-24.3
					c1.7-0.1,2.6-0.1,3.9-3l9.3-22.1c0.2-0.6,0.2-1,0-1.5c-0.4-0.8-1.5-1.4-2-1.5C164,362.7,162,362.6,159.7,362.6z"/>
			</g>
			<g>
				<path fill="#4AB678" d="M222.1,286.1c-1.6,0-4,0-5.4,3.4l-82,195.2c-0.5,1-0.8,2.4,0,3.6c0.6,0.9,1.6,1.4,2.8,1.4l22.1,0
					c3.1,0,4.8-1,6-3.7l63.8-152.1c0.9-1.8,4-1.5,4.7,0.3c17.5,41.6,57.2,136.7,57.3,137c1.3,2.7,3.1,2.9,5.6,2.9h16.9
					c3,0,4.7-0.5,6-3l70.6-168.6c0.8-1.8,3.7-1.8,4.5,0l56,133.4l-0.2,0.5L430,485.5c-0.2,0.7-0.4,1.9,0.4,3
					c0.6,0.8,1.5,1.3,2.7,1.3l21.5,0c3.2,0,4.9-1,6.1-3.6l81.8-195.2c0.8-1.9,0.4-3,0.1-3.4c-0.5-0.8-1.6-1.2-3-1.3l-21.4,0
					c-2.4,0-4.6,0.3-6,3.2l-43.8,104.4c-0.9,1.9-3.5,1.8-4.4,0.1L420,289.4c-0.1-0.3-1.1-3.3-6.2-3.3h-44.2c-2.1,0-3.7,0.6-4.8,3.2
					c-0.6,1.4-56.2,133.7-56.7,134.7c-0.5,1.1-1.3,1.7-2.3,1.7c-1.1,0-2.1-0.7-2.5-1.7l-56.4-134.3c-1.3-3.1-3.3-3.3-6-3.3
					L222.1,286.1z"/>
			</g>
			<g>
				<path fill="#4AB678" d="M397.3,242.5c-0.4,0-0.8,0-1.1,0.1c-1.6,0.1-51,5.7-66.3,8.6c-3.8,0.7-10.1,3.7-10.1,10.6
					c0,6.6,5.5,9.2,9,9.4l78.8,0.2l0,1.2v-1.2c1.3,0,2.4-0.5,3-1.4c0.4-0.7,0.5-1.5,0.2-2.2c-0.1-0.2-1.8-4.2-5.3-12.6
					c-2.1-5-4-9.6-4.1-9.9C400.5,243.3,399.2,242.5,397.3,242.5z"/>
			</g>
			<g>
				<g>
					<path fill="#4AB678" d="M405.6,375.7c-1.2,0-2.4,0.4-2.7,0.5c-33.4,18.5-54,53.7-54,91.9c0,28,10.9,54.4,30.8,74.3
						c19.9,19.9,46.3,30.8,74.3,30.9l0,1.2v-1.2c57.9,0,105.1-47.1,105.2-105.1c0-29.7-13-58.4-35.6-78.7c-0.5-0.4-1.9-1.2-3.2-1.2
						c-1.1,0-1.9,0.6-2.4,1.7l-8.8,21.1c-0.7,1.6-0.3,3.1,1.1,4.6c13.4,14.3,20.8,33,20.8,52.6c0,42.4-34.6,77-77.1,77
						c-20.5,0-39.9-8-54.5-22.6C385,508,377,488.6,377,468.1c0-27.5,14.9-53.2,38.9-66.9c1.4-0.8,1.8-2.1,1.3-3.9l-8.1-19.6
						C408.3,376,406.8,375.7,405.6,375.7z"/>
				</g>
			</g>
		</g>
	</g>
</g>
<g id="Layer_7">
</g>
</svg>
